PathFileType	4	(X/Y/Z)	 s02c0103.trc
DataRate	CameraRate	NumFrames	NumMarkers	Units	OrigDataRate	OrigDataStartFrame	OrigNumFrames
200	200	4	50	mm	200	1001	2000
Frame#	Time	racr			lacr			c7			jug			rlel			rdr			llel			ldr			s2			lic			ric			lasi			rasi			rpsi			lpsi			rgt			lgt			rth1			rth2			rth3			rth4			rlfc			rmfc			rsh1			rsh2			rsh3			rsh4			rlmal			rmmal			rtoe			rmt5			rmt1			lth1			lth2			lth4			lth3			llfc			lmfc			lsh1			lsh2			lsh3			lsh4			llmal			lmmal			lcal			ltoe			lmt5			SBIKE			LBIKE			RBIKE			
		X1	Y1	Z1	X2	Y2	Z2	X3	Y3	Z3	X4	Y4	Z4	X5	Y5	Z5	X6	Y6	Z6	X7	Y7	Z7	X8	Y8	Z8	X9	Y9	Z9	X10	Y10	Z10	X11	Y11	Z11	X12	Y12	Z12	X13	Y13	Z13	X14	Y14	Z14	X15	Y15	Z15	X16	Y16	Z16	X17	Y17	Z17	X18	Y18	Z18	X19	Y19	Z19	X20	Y20	Z20	X21	Y21	Z21	X22	Y22	Z22	X23	Y23	Z23	X24	Y24	Z24	X25	Y25	Z25	X26	Y26	Z26	X27	Y27	Z27	X28	Y28	Z28	X29	Y29	Z29	X30	Y30	Z30	X31	Y31	Z31	X32	Y32	Z32	X33	Y33	Z33	X34	Y34	Z34	X35	Y35	Z35	X36	Y36	Z36	X37	Y37	Z37	X38	Y38	Z38	X39	Y39	Z39	X40	Y40	Z40	X41	Y41	Z41	X42	Y42	Z42	X43	Y43	Z43	X44	Y44	Z44	X45	Y45	Z45	X46	Y46	Z46	X47	Y47	Z47	X48	Y48	Z48	X49	Y49	Z49	X50	Y50	Z50	
1001	5.0050	557.134200	1241.845536	-156.852211	539.820459	1262.120069	-482.446471	529.708800	1287.233357	-325.685121	471.515088	1156.736927	-327.070723	569.133570	995.779169	-42.025318	712.125199	843.876991	-113.506755	528.457077	994.519969	-585.341015	701.147646	857.672252	-507.262899	11.834957	1127.411367	-284.695374	101.531130	1134.936627	-419.722836	144.652939	1103.856935	-152.010154	164.503705	1104.313876	-417.922667	192.282576	1076.645691	-186.303525	27.226976	1153.815521	-240.110275	27.487814	1169.498459	-324.129250	102.043852	1016.885568	-126.267065	89.286373	1066.845239	-482.910223	174.786385	942.125215	-112.216466	233.730794	876.338883	-115.947009	256.132731	795.659268	-96.627335	260.525140	889.295581	-139.481253	296.440559	664.620423	-136.027671	287.348857	647.147771	-241.333044	283.300903	559.373688	-114.739780	292.431755	472.136772	-130.452014	259.619117	392.198931	-127.367435	306.813600	472.743148	-167.218214	234.104310	277.625503	-134.942109	244.079744	296.136836	-213.270928	399.157463	120.327368	-189.842596	299.244570	158.366005	-125.031133	325.151012	163.282343	-231.564408	221.569441	1040.972003	-498.141828	306.536185	1038.624795	-492.103890	315.793257	1067.719599	-471.266358	382.322152	992.429664	-500.905816	478.737793	954.296664	-488.232648	487.820499	922.658229	-375.430410	445.787613	861.966338	-500.612922	411.596121	783.954900	-484.873025	340.817160	728.191904	-488.997726	429.586409	773.352814	-449.129134	259.300121	646.254168	-477.742412	278.152606	639.784378	-399.267576	181.538059	627.943653	-437.316635	424.854916	475.655132	-432.278179	324.274710	507.514842	-496.356385	-126.133720	872.785501	-306.195810	37.279050	87.553457	-513.962827	33.775703	83.347277	-114.395172	
1002	5.0100	557.495878	1241.040635	-158.191341	538.499273	1262.666737	-482.778074	529.013438	1287.230045	-326.403565	471.089751	1156.621964	-328.151639	569.684592	995.853920	-41.553271	712.216641	843.683701	-113.267117	526.678073	994.833740	-584.421437	700.454337	858.477592	-507.138222	11.883272	1127.716754	-284.013660	102.011002	1134.421298	-420.463571	143.818490	1104.092046	-151.283154	164.047648	1106.290510	-417.955934	191.092402	1077.259935	-185.825265	26.389970	1154.919788	-238.890447	26.778016	1170.698638	-322.741079	100.649968	1017.014776	-125.458106	88.796277	1068.127619	-481.626899	173.314336	942.215268	-111.601897	232.781021	876.951402	-114.909042	255.536116	796.239834	-95.841166	259.658447	890.083778	-138.230920	297.236983	665.554881	-135.755917	288.266952	648.672959	-241.253561	282.495437	560.607045	-114.901412	289.503907	473.198181	-130.898746	254.773905	393.871581	-127.869146	303.741753	473.448489	-167.716764	226.319887	280.219941	-135.260231	236.550380	298.491458	-213.702527	388.284186	119.880027	-189.767045	288.969493	159.667996	-125.347763	315.133549	163.537676	-231.713577	220.847395	1041.787226	-497.972329	305.718826	1039.287466	-492.437884	315.140162	1068.765050	-471.980550	381.464588	993.039791	-500.908814	478.684748	956.392523	-488.322573	488.214747	924.974174	-375.674949	447.451028	863.725311	-500.969898	415.141319	784.827379	-485.733892	345.542193	727.514052	-489.774289	433.441586	774.453151	-450.084645	265.410179	642.839900	-478.517345	284.465607	637.228457	-400.426941	188.168637	622.852398	-438.739581	435.286373	477.700064	-432.474717	333.835681	506.322396	-496.987161	-126.147083	872.764540	-306.176193	37.291467	87.525922	-513.993325	33.694087	83.215575	-114.385281	
1003	5.0150	557.759595	1240.081008	-159.315614	537.013914	1263.144531	-483.095380	528.252354	1287.072819	-327.131456	470.460389	1156.414855	-329.186152	570.075193	995.799730	-41.117583	712.246272	843.453374	-113.066467	524.741954	994.915676	-583.541780	699.953196	859.193909	-507.415405	10.103945	1128.497688	-282.760975	102.513024	1133.886519	-421.229575	142.722356	1104.466610	-150.416982	163.719188	1108.615353	-419.410266	189.697757	1077.515389	-185.021474	25.378718	1155.911605	-237.848198	26.777015	1172.124403	-322.064243	98.920981	1017.219930	-124.014489	88.413570	1069.197005	-480.489766	171.969891	942.423033	-111.024014	232.138469	877.829049	-113.827423	255.463546	797.256148	-95.156344	259.118219	891.375468	-136.953269	298.759549	666.836286	-135.165617	289.971121	650.448010	-241.064446	282.313349	562.042106	-115.109172	286.857615	474.504087	-131.356403	250.234018	396.108297	-128.223180	301.104243	474.464635	-168.100010	218.534687	283.442275	-135.729826	229.632283	301.134961	-214.277172	377.472696	119.817687	-189.536958	278.773839	161.666776	-125.565670	305.193760	164.828406	-231.834685	220.114454	1042.394299	-498.144188	304.967672	1039.341158	-492.856061	314.661857	1069.071110	-472.804395	380.483570	992.775004	-501.165926	478.489090	957.517340	-488.431804	488.600179	925.948690	-376.135164	448.685480	864.238680	-501.542130	418.149956	784.536632	-486.841381	349.734597	725.851676	-490.794704	436.793509	774.308961	-451.246462	271.230255	638.439772	-479.318547	290.488846	633.670827	-401.586572	194.107168	616.407543	-439.483727	445.593463	479.485203	-432.545885	343.272895	504.382157	-497.651833	-126.173649	872.706440	-306.203299	37.295150	87.523177	-513.988312	33.700220	83.245007	-114.383311	
1004	5.0200	557.938716	1239.010377	-160.458591	535.435292	1263.502641	-483.400542	527.406135	1286.792886	-327.722103	469.750622	1156.084046	-330.100395	570.219077	995.573308	-40.828752	712.251721	843.197880	-112.894389	522.688082	994.730977	-582.679637	699.191918	859.821718	-507.467669	8.113770	1129.145046	-281.800478	103.037424	1133.332117	-422.020998	141.402207	1104.972250	-149.620967	163.379921	1110.452351	-420.449823	188.243484	1077.689694	-183.898840	24.305529	1156.964824	-237.134719	26.013027	1173.028284	-321.252435	97.028871	1017.737482	-122.448114	88.113488	1070.114756	-479.408128	170.775459	942.865079	-110.418313	231.801276	879.015704	-112.798962	255.875345	798.518104	-94.589982	258.806335	892.912229	-135.671927	300.788500	668.563741	-134.730421	292.301136	652.561499	-240.895017	282.628173	563.763730	-115.281171	284.713234	476.226212	-131.733787	246.060380	398.769237	-128.667035	298.803237	475.917750	-168.585553	210.894195	287.216061	-136.306667	222.484037	304.733674	-214.892173	366.732500	120.713659	-189.189890	268.684297	164.330917	-125.883950	295.264036	166.510185	-232.130828	219.386715	1042.623215	-498.214449	304.277173	1038.831194	-493.329854	314.210195	1068.634487	-473.697986	379.365371	991.570914	-501.465609	478.149733	957.071898	-488.746700	488.675805	925.699209	-376.679703	449.401681	863.431928	-502.406635	420.620631	782.931944	-487.984021	353.288526	722.985310	-491.941666	439.696545	772.867611	-452.697447	276.731895	633.025776	-480.174958	295.913064	629.085136	-402.788245	199.475578	608.718993	-440.018828	455.467017	480.770254	-432.980898	352.403688	501.727610	-498.276175	-126.216409	872.661931	-306.289211	37.276418	87.422465	-514.029579	33.674462	83.246932	-114.395219	
